<svg width="291" height="301" viewBox="0 0 291 301" fill="none" xmlns="http://www.w3.org/2000/svg">
<g clip-path="url(#clip0_2100_19644)">
<path d="M204.178 300.536H124.677C123.753 300.535 122.867 300.167 122.213 299.513C121.56 298.858 121.192 297.971 121.191 297.046V241.386C121.192 240.46 121.56 239.573 122.213 238.919C122.867 238.264 123.753 237.896 124.677 237.895H204.178C205.102 237.896 205.988 238.264 206.642 238.919C207.295 239.573 207.663 240.46 207.664 241.386V297.046C207.663 297.971 207.295 298.858 206.642 299.512C205.988 300.167 205.102 300.535 204.178 300.536Z" fill="#F2F2F2"/>
<path d="M74.2573 155.444C74.7903 154.761 75.1673 153.969 75.3616 153.125C75.556 152.28 75.563 151.403 75.3822 150.555C75.2015 149.707 74.8372 148.91 74.3153 148.218C73.7933 147.526 73.1262 146.958 72.3611 146.552L71.8601 93.3048L61.9216 97.872L64.1076 149.37C63.5125 150.702 63.4262 152.207 63.865 153.599C64.3037 154.991 65.2371 156.173 66.4881 156.922C67.7392 157.67 69.2211 157.934 70.653 157.661C72.0849 157.389 73.3674 156.6 74.2573 155.444Z" fill="#9E616A"/>
<path d="M73.9895 79.8236C73.9895 79.8236 64.3216 75.1275 62.9846 83.9876C61.6475 92.8478 56.1479 115.907 56.1479 115.907L72.8363 114.726L73.9895 79.8236Z" fill="#9E616A"/>
<path d="M74.2573 155.444C74.7903 154.761 75.1673 153.969 75.3616 153.125C75.556 152.28 75.563 151.403 75.3822 150.555C75.2015 149.707 74.8372 148.91 74.3153 148.218C73.7933 147.526 73.1262 146.958 72.3611 146.552L71.8601 93.3048L61.9216 97.872L64.1076 149.37C63.5125 150.702 63.4262 152.207 63.865 153.599C64.3037 154.991 65.2371 156.173 66.4881 156.922C67.7392 157.67 69.2211 157.934 70.653 157.661C72.0849 157.389 73.3674 156.6 74.2573 155.444Z" fill="#9E616A"/>
<path d="M73.9895 79.8236C73.9895 79.8236 64.3216 75.1275 62.9846 83.9876C61.6475 92.8478 56.1479 115.907 56.1479 115.907L72.8363 114.726L73.9895 79.8236Z" fill="#003366"/>
<path d="M45.9967 284.941C45.6063 284.958 45.2199 284.856 44.8897 284.647C44.5595 284.437 44.3016 284.131 44.1509 283.77C44.0001 283.409 43.9638 283.011 44.0469 282.628C44.13 282.246 44.3285 281.898 44.6155 281.633C44.6635 281.441 44.698 281.304 44.746 281.113C44.7289 281.071 44.7115 281.03 44.6941 280.988C44.3009 280.058 43.6419 279.265 42.8 278.709C41.9581 278.152 40.9708 277.857 39.9621 277.861C38.9534 277.865 37.9684 278.167 37.1306 278.73C36.2929 279.292 35.6398 280.09 35.2535 281.023C33.7094 284.747 31.7435 288.477 31.2595 292.415C31.0463 294.155 31.1362 295.92 31.5253 297.629C27.8987 289.707 26.0155 281.097 26.0033 272.383C26.0026 270.196 26.1239 268.011 26.3668 265.837C26.5675 264.056 26.8459 262.287 27.2021 260.531C29.1459 251.001 33.3193 242.07 39.3795 234.469C42.3127 232.867 44.6848 230.402 46.1761 227.408C46.7164 226.332 47.0983 225.183 47.3098 223.997C46.9789 224.04 46.6426 224.068 46.3118 224.089C46.2087 224.095 46.1002 224.1 45.9971 224.106L45.9583 224.107C45.5946 224.124 45.234 224.034 44.9198 223.85C44.6057 223.666 44.3514 223.395 44.1875 223.07C44.0236 222.744 43.9572 222.378 43.9963 222.016C44.0353 221.653 44.1781 221.31 44.4075 221.027C44.5503 220.851 44.6933 220.675 44.8363 220.499C45.0533 220.227 45.2757 219.961 45.4927 219.69C45.5177 219.664 45.5413 219.637 45.5632 219.608C45.8128 219.299 46.0622 218.994 46.3118 218.685C45.8563 217.977 45.2437 217.384 44.5218 216.952C42.0212 215.486 38.5713 216.501 36.765 218.766C34.9533 221.031 34.6116 224.209 35.2408 227.039C35.8596 229.447 36.8831 231.732 38.2676 233.796C38.1319 233.97 37.9909 234.138 37.8553 234.312C35.3764 237.504 33.2159 240.931 31.4047 244.545C31.8451 240.497 31.3194 236.401 29.8708 232.595C28.4027 229.049 25.6508 226.062 23.2275 222.996C20.3167 219.313 14.3478 220.92 13.835 225.589C13.83 225.634 13.8252 225.679 13.8205 225.724C14.1804 225.928 14.5327 226.143 14.8775 226.372C15.3106 226.662 15.6461 227.076 15.8402 227.56C16.0343 228.044 16.0779 228.575 15.9652 229.084C15.8526 229.593 15.5889 230.057 15.2089 230.413C14.8288 230.77 14.35 231.003 13.8352 231.083L13.7825 231.091C13.9107 232.39 14.1374 233.677 14.4605 234.942C15.3968 238.472 17.0514 241.771 19.3205 244.631C21.5896 247.491 24.4243 249.851 27.6469 251.563C27.8584 251.672 28.0646 251.78 28.2761 251.883C26.4564 257.047 25.315 262.426 24.8805 267.885C24.6346 271.106 24.6491 274.341 24.924 277.559L24.9077 277.445C24.2133 273.866 22.3069 270.638 19.5105 268.303C15.3571 264.887 9.48913 263.629 5.00835 260.883C4.53215 260.576 3.97845 260.413 3.41255 260.412C2.84666 260.41 2.29216 260.571 1.81447 260.875C1.33679 261.179 0.95584 261.613 0.716548 262.126C0.477256 262.64 0.38961 263.211 0.463942 263.773C0.469952 263.813 0.476054 263.853 0.48226 263.893C1.15021 264.165 1.80056 264.479 2.42954 264.833C2.78949 265.036 3.14183 265.252 3.48657 265.48C3.91965 265.77 4.25524 266.184 4.44934 266.668C4.64345 267.152 4.68701 267.683 4.57435 268.192C4.46169 268.702 4.19805 269.165 3.81797 269.522C3.43788 269.878 2.95909 270.111 2.44432 270.191L2.39157 270.199C2.3536 270.205 2.32106 270.21 2.28314 270.215C3.42443 272.944 5.02625 275.456 7.01848 277.641C9.47954 280.285 12.4541 282.398 15.7597 283.851C19.0653 285.303 22.6323 286.064 26.242 286.087H26.2475C27.2273 290.351 28.6471 294.501 30.4838 298.471H45.6175C45.6717 298.303 45.7205 298.129 45.7694 297.961C44.3686 298.049 42.9622 297.965 41.5818 297.711C42.7046 296.331 43.8274 294.941 44.9503 293.561C44.9753 293.535 44.9989 293.508 45.0208 293.479C45.5903 292.773 46.1653 292.073 46.7348 291.367L46.7351 291.366C46.7655 289.201 46.5175 287.042 45.9971 284.941L45.9967 284.941Z" fill="#F2F2F2"/>
<path d="M269.111 284.941C268.721 284.958 268.334 284.856 268.004 284.647C267.674 284.437 267.416 284.131 267.265 283.77C267.115 283.409 267.078 283.011 267.161 282.628C267.244 282.246 267.443 281.898 267.73 281.633C267.778 281.441 267.812 281.304 267.86 281.113C267.843 281.071 267.826 281.03 267.809 280.988C267.415 280.058 266.756 279.265 265.914 278.709C265.072 278.152 264.085 277.857 263.077 277.861C262.068 277.865 261.083 278.167 260.245 278.73C259.407 279.292 258.754 280.09 258.368 281.023C256.824 284.747 254.858 288.477 254.374 292.415C254.161 294.155 254.251 295.92 254.64 297.629C251.013 289.707 249.13 281.097 249.118 272.383C249.117 270.196 249.238 268.011 249.481 265.837C249.682 264.056 249.96 262.287 250.317 260.531C252.26 251.001 256.434 242.07 262.494 234.469C265.427 232.867 267.799 230.402 269.29 227.408C269.831 226.332 270.213 225.183 270.424 223.997C270.093 224.04 269.757 224.068 269.426 224.089C269.323 224.095 269.215 224.1 269.112 224.106L269.073 224.107C268.709 224.124 268.348 224.034 268.034 223.85C267.72 223.666 267.466 223.395 267.302 223.07C267.138 222.744 267.072 222.378 267.111 222.016C267.15 221.653 267.292 221.31 267.522 221.027C267.665 220.851 267.808 220.675 267.951 220.499C268.168 220.227 268.39 219.961 268.607 219.69C268.632 219.664 268.656 219.637 268.678 219.608C268.927 219.299 269.177 218.994 269.426 218.685C268.971 217.977 268.358 217.384 267.636 216.952C265.136 215.486 261.686 216.501 259.879 218.766C258.068 221.031 257.726 224.209 258.355 227.039C258.974 229.447 259.997 231.732 261.382 233.796C261.246 233.97 261.105 234.138 260.97 234.312C258.491 237.504 256.33 240.931 254.519 244.545C254.959 240.497 254.434 236.401 252.985 232.595C251.517 229.049 248.765 226.062 246.342 222.996C243.431 219.313 237.462 220.92 236.949 225.589C236.944 225.634 236.94 225.679 236.935 225.724C237.295 225.928 237.647 226.143 237.992 226.372C238.425 226.662 238.76 227.076 238.955 227.56C239.149 228.044 239.192 228.575 239.08 229.084C238.967 229.593 238.703 230.057 238.323 230.413C237.943 230.77 237.464 231.003 236.95 231.083L236.897 231.091C237.025 232.39 237.252 233.677 237.575 234.942C238.511 238.472 240.166 241.771 242.435 244.631C244.704 247.491 247.539 249.851 250.761 251.563C250.973 251.672 251.179 251.78 251.391 251.883C249.571 257.047 248.429 262.426 247.995 267.885C247.749 271.106 247.763 274.341 248.038 277.559L248.022 277.445C247.328 273.866 245.421 270.638 242.625 268.303C238.471 264.887 232.604 263.629 228.123 260.883C227.647 260.576 227.093 260.413 226.527 260.412C225.961 260.41 225.407 260.571 224.929 260.875C224.451 261.179 224.07 261.613 223.831 262.126C223.592 262.64 223.504 263.211 223.578 263.773C223.584 263.813 223.59 263.853 223.597 263.893C224.265 264.165 224.915 264.479 225.544 264.833C225.904 265.036 226.256 265.252 226.601 265.48C227.034 265.77 227.37 266.184 227.564 266.668C227.758 267.152 227.801 267.683 227.689 268.192C227.576 268.702 227.312 269.165 226.932 269.522C226.552 269.878 226.073 270.111 225.559 270.191L225.506 270.199C225.468 270.205 225.435 270.21 225.398 270.215C226.539 272.944 228.141 275.456 230.133 277.641C232.594 280.285 235.568 282.398 238.874 283.851C242.18 285.303 245.747 286.064 249.356 286.087H249.362C250.342 290.351 251.761 294.501 253.598 298.471H268.732C268.786 298.303 268.835 298.129 268.884 297.961C267.483 298.049 266.077 297.965 264.696 297.711C265.819 296.331 266.942 294.941 268.065 293.561C268.09 293.535 268.113 293.508 268.135 293.479C268.705 292.773 269.28 292.073 269.849 291.367L269.85 291.366C269.88 289.201 269.632 287.042 269.112 284.941L269.111 284.941Z" fill="#F2F2F2"/>
<path d="M210.833 298.372C210.79 298.372 210.746 298.371 210.703 298.37C209.595 298.307 208.555 297.818 207.798 297.006C207.041 296.194 206.627 295.121 206.64 294.01C206.64 287.252 201.819 283.31 197.042 282.401C192.264 281.492 186.336 283.389 183.861 289.677L181.611 295.332C179.666 297.276 177.031 298.367 174.283 298.367C171.536 298.367 168.9 297.276 166.955 295.332L166.822 295.199L166.905 295.03L206.64 213.619V211.624C206.585 211.009 206.586 210.39 206.641 209.775L206.64 4.73321C206.64 4.17118 206.753 3.61486 206.972 3.09726C207.19 2.57967 207.511 2.11134 207.914 1.72006C208.317 1.32879 208.794 1.02254 209.317 0.819471C209.841 0.616407 210.399 0.520662 210.96 0.537931C212.068 0.601316 213.108 1.08993 213.865 1.90207C214.622 2.71421 215.037 3.78731 215.023 4.89801V209.799C215.078 210.414 215.078 211.033 215.022 211.648L215.023 213.618L254.841 295.199L254.708 295.332C252.763 297.276 250.128 298.367 247.38 298.367C244.632 298.367 241.997 297.276 240.052 295.332L239.993 295.243L237.802 289.677C235.328 283.39 229.4 281.494 224.621 282.401C219.844 283.31 215.023 287.252 215.023 294.01V294.175C215.023 295.288 214.582 296.355 213.796 297.142C213.01 297.929 211.945 298.372 210.833 298.372Z" fill="#E6E6E6"/>
<path d="M283.569 148.948H138.094C136.403 148.946 134.782 148.272 133.586 147.075C132.391 145.878 131.718 144.254 131.716 142.561V40.7124C131.718 39.019 132.391 37.3955 133.586 36.1981C134.782 35.0007 136.403 34.3272 138.094 34.3253H283.569C285.26 34.3273 286.881 35.0008 288.077 36.1982C289.273 37.3956 289.945 39.0191 289.947 40.7124V142.561C289.945 144.254 289.272 145.877 288.077 147.075C286.881 148.272 285.26 148.946 283.569 148.948Z" fill="white"/>
<path d="M283.569 149.74H138.094C136.194 149.738 134.371 148.981 133.027 147.635C131.683 146.289 130.927 144.464 130.925 142.561V40.7123C130.927 38.8089 131.683 36.9841 133.027 35.6382C134.371 34.2923 136.194 33.5352 138.094 33.5331H283.569C285.47 33.5353 287.292 34.2924 288.636 35.6383C289.98 36.9842 290.736 38.8089 290.738 40.7123V142.561C290.736 144.464 289.98 146.289 288.636 147.635C287.292 148.981 285.47 149.738 283.569 149.74ZM138.094 35.1177C136.613 35.1193 135.193 35.7092 134.146 36.7581C133.098 37.8069 132.509 39.229 132.507 40.7123V142.561C132.509 144.044 133.098 145.466 134.146 146.515C135.193 147.564 136.613 148.154 138.094 148.155H283.569C285.05 148.154 286.47 147.564 287.518 146.515C288.565 145.466 289.154 144.044 289.156 142.561V40.7123C289.154 39.229 288.565 37.807 287.518 36.7581C286.47 35.7093 285.05 35.1193 283.569 35.1177H138.094Z" fill="#F2F2F2"/>
<path d="M232.34 40.6932H189.323C186.595 40.6901 183.981 39.6039 182.052 37.6727C180.124 35.7416 179.039 33.1233 179.036 30.3922V30.2049H242.627V30.3922C242.624 33.1233 241.539 35.7416 239.611 37.6727C237.682 39.6039 235.068 40.6901 232.34 40.6932Z" fill="#E6E6E6"/>
<path d="M232.528 155.316H189.51C186.782 155.312 184.168 154.226 182.239 152.295C180.311 150.364 179.226 147.746 179.223 145.015V144.827H242.814V145.015C242.811 147.746 241.727 150.364 239.798 152.295C237.87 154.226 235.255 155.312 232.528 155.316Z" fill="#E6E6E6"/>
<path d="M290.189 298.897C290.19 298.979 290.174 299.061 290.142 299.138C290.111 299.214 290.064 299.283 290.006 299.342C289.948 299.4 289.878 299.446 289.802 299.478C289.726 299.509 289.644 299.526 289.562 299.525H0.889638C0.723169 299.525 0.563531 299.459 0.44582 299.341C0.328108 299.223 0.261963 299.063 0.261963 298.897C0.261963 298.73 0.328108 298.57 0.44582 298.452C0.563531 298.334 0.723169 298.268 0.889638 298.268H289.562C289.644 298.268 289.726 298.284 289.802 298.316C289.878 298.347 289.948 298.393 290.006 298.452C290.064 298.51 290.111 298.58 290.142 298.656C290.174 298.732 290.19 298.814 290.189 298.897Z" fill="#F4F4F4"/>
<path d="M97.4755 284.265H105.079L108.697 254.895L97.4739 254.896L97.4755 284.265Z" fill="#9E616A"/>
<path d="M94.9004 280.509L106.921 279.791V284.948L118.349 292.851C118.913 293.242 119.338 293.802 119.562 294.452C119.786 295.101 119.796 295.805 119.592 296.461C119.388 297.117 118.98 297.69 118.427 298.097C117.875 298.504 117.207 298.724 116.521 298.723H102.21L99.7435 293.622L98.7804 298.723H93.3848L94.9004 280.509Z" fill="#2F2E41"/>
<path d="M71.6148 120.904L70.8701 124.459L70.2366 137.571L95.6832 134.121L97.6375 118.938L94.9363 114.494L71.6148 120.904Z" fill="#9E616A"/>
<path d="M58.9928 284.265H66.5966L70.2139 254.895L58.9912 254.896L58.9928 284.265Z" fill="#9E616A"/>
<path d="M54.8675 232.377L54.8672 232.298L57.7135 218.992L59.4687 212.368L54.59 173.584C53.4413 145.407 69.7662 131.861 69.8946 131.728L70.2486 131.36L96.4294 130.718C110.516 139.17 108.921 185.395 111.501 216.833C111.685 219.074 113.996 222.383 113.428 224.515C108.92 241.431 110.241 259.725 106.807 260.265L96.2781 260.119L90.8403 235.406L95.8598 216.557C93.6337 216.146 92.0952 205.248 92.0952 205.248C91.1252 204.094 87.7763 194.285 87.7763 194.285L83.3111 167.131L76.1372 213.835L77.8649 224.792L76.4351 228.559L70.3123 259.662L70.2472 260.163L58.7036 259.009L54.8675 232.377Z" fill="#2F2E41"/>
<path d="M56.4178 280.509L68.438 279.791V284.948L79.866 292.851C80.4305 293.242 80.8556 293.802 81.0793 294.452C81.303 295.101 81.3135 295.805 81.1094 296.461C80.9053 297.117 80.4971 297.69 79.9446 298.097C79.392 298.504 78.724 298.724 78.0381 298.723H63.7275L61.2609 293.622L60.2978 298.723H54.9021L56.4178 280.509Z" fill="#2F2E41"/>
<path d="M92.6083 69.6255L99.0264 76.7665L106.735 91.3165L102.949 109.258L104.604 117.677L107.049 126.932C97.6288 132.15 86.4391 124.944 76.1592 121.743L66.0447 126.218L66.5795 113.9L66.8538 82.8634C66.8643 81.6713 67.1194 80.4942 67.6032 79.405C68.0871 78.3158 68.7893 77.3378 69.6663 76.5317C70.5433 75.7256 71.5765 75.1087 72.7015 74.7191C73.8266 74.3295 75.0197 74.1757 76.2066 74.2671L82.9812 69.2684L92.6083 69.6255Z" fill="#003366"/>
<path d="M90.8107 65.8875C98.2848 65.8875 104.344 59.8202 104.344 52.3358C104.344 44.8514 98.2848 38.7841 90.8107 38.7841C83.3366 38.7841 77.2776 44.8514 77.2776 52.3358C77.2776 59.8202 83.3366 65.8875 90.8107 65.8875Z" fill="#9E616A"/>
<path d="M106.735 47.4451C106.497 48.773 100.8 49.4138 100.971 47.0514C99.8628 49.2756 98.2065 52.5033 100.316 56.2006C99.4899 57.1019 98.9693 58.2419 98.8289 59.4574C98.6886 60.6729 98.9357 61.9018 99.5348 62.9682C100.135 63.9455 100.638 64.9795 101.037 66.0552C101.117 66.3164 101.174 66.5841 101.208 66.8553C101.242 67.1278 101.202 67.4044 101.093 67.6562C100.983 67.908 100.808 68.1256 100.585 68.2862C100.363 68.4468 100.101 68.5446 99.8283 68.5692C99.5551 68.5938 99.2804 68.5443 99.0329 68.426C93.294 65.6113 83.286 66.0883 77.0075 67.8057C77.0493 66.5826 77.0326 65.3623 76.9573 64.1448C76.7281 65.6673 76.1148 67.1061 75.1754 68.3251C74.1004 68.6434 73.0463 68.9743 72.0257 69.301C71.8701 69.3515 71.7036 69.3588 71.5442 69.3221C71.3847 69.2855 71.2382 69.2062 71.1202 69.0927C71.0022 68.9793 70.9171 68.8359 70.874 68.6778C70.8309 68.5198 70.8314 68.353 70.8754 68.1952C71.0743 67.4723 71.1115 66.7142 70.9842 65.9753C70.7248 64.4422 69.9551 63.0558 69.4114 61.6023C68.8676 60.1489 68.5581 58.4776 69.2231 57.0744C70.2563 54.8963 73.1676 54.2303 74.4518 52.1904C75.8949 49.8993 74.7739 46.9128 74.9997 44.2111C75.3176 40.391 78.4422 37.2873 81.9643 35.7877C88.0629 33.1908 95.6925 35.2939 100.264 40.0941C100.906 39.6605 101.654 39.4133 102.428 39.38C103.201 39.3468 103.968 39.5287 104.644 39.9056C105.995 40.6302 106.965 41.0072 107.572 42.4188C108.103 43.6586 106.978 46.1131 106.735 47.4451Z" fill="#2F2E41"/>
<path d="M100.923 206.808L69.0828 174.925C68.7131 174.554 68.5055 174.051 68.5055 173.527C68.5055 173.003 68.7131 172.5 69.0828 172.129L91.3435 149.838C91.7141 149.468 92.2161 149.26 92.7396 149.26C93.263 149.26 93.765 149.468 94.1356 149.838L125.975 181.721C126.345 182.092 126.553 182.595 126.553 183.119C126.553 183.643 126.345 184.146 125.975 184.517L103.714 206.808C103.344 207.179 102.842 207.387 102.319 207.387C101.795 207.387 101.293 207.179 100.923 206.808Z" fill="white"/>
<path d="M102.319 207.914C101.99 207.915 101.664 207.851 101.361 207.725C101.057 207.6 100.781 207.415 100.55 207.182L68.7098 175.298C68.2412 174.828 67.9779 174.191 67.9779 173.527C67.9779 172.863 68.2412 172.226 68.7098 171.756L90.9707 149.464C91.4401 148.995 92.0763 148.732 92.7397 148.732C93.403 148.732 94.0392 148.995 94.5086 149.464L126.348 181.348C126.817 181.818 127.08 182.455 127.08 183.119C127.08 183.783 126.817 184.42 126.348 184.89L104.087 207.182C103.855 207.415 103.58 207.6 103.276 207.725C102.973 207.851 102.647 207.915 102.319 207.914ZM92.7395 149.788C92.5496 149.787 92.3613 149.824 92.1857 149.897C92.0102 149.97 91.8508 150.076 91.7168 150.211L69.4557 172.503C69.1849 172.775 69.0328 173.143 69.0328 173.527C69.0328 173.911 69.1849 174.28 69.4557 174.552L101.296 206.435C101.571 206.698 101.938 206.844 102.318 206.844C102.699 206.844 103.066 206.698 103.341 206.435L125.602 184.143C125.873 183.871 126.025 183.503 126.025 183.119C126.025 182.735 125.873 182.367 125.602 182.095L93.7625 150.211C93.6285 150.076 93.469 149.97 93.2934 149.897C93.1178 149.824 92.9296 149.787 92.7395 149.788Z" fill="#E6E6E6"/>
<path d="M88.9259 152.803C88.3929 152.12 88.0159 151.329 87.8216 150.484C87.6272 149.639 87.6202 148.762 87.801 147.914C87.9818 147.066 88.346 146.269 88.868 145.577C89.3899 144.886 90.057 144.317 90.8221 143.912L91.3231 90.6639L101.262 95.2311L99.0756 146.729C99.6707 148.062 99.757 149.566 99.3182 150.958C98.8795 152.35 97.9462 153.532 96.6951 154.281C95.444 155.029 93.9621 155.293 92.5302 155.02C91.0983 154.748 89.8159 153.959 88.9259 152.803Z" fill="#9E616A"/>
<path d="M89.1936 77.1827C89.1936 77.1827 98.8615 72.4866 100.199 81.3467C101.536 90.2069 107.035 113.267 107.035 113.267L90.3468 112.085L89.1936 77.1827Z" fill="#9E616A"/>
<path d="M88.9259 152.803C88.3929 152.12 88.0159 151.329 87.8216 150.484C87.6272 149.639 87.6202 148.762 87.801 147.914C87.9818 147.066 88.346 146.269 88.868 145.577C89.3899 144.886 90.057 144.317 90.8221 143.912L91.3231 90.6639L101.262 95.2311L99.0756 146.729C99.6707 148.062 99.757 149.566 99.3182 150.958C98.8795 152.35 97.9462 153.532 96.6951 154.281C95.444 155.029 93.9621 155.293 92.5302 155.02C91.0983 154.748 89.8159 153.959 88.9259 152.803Z" fill="#9E616A"/>
<path d="M89.1936 77.1827C89.1936 77.1827 98.8615 72.4866 100.199 81.3467C101.536 90.2069 107.035 113.267 107.035 113.267L90.3468 112.085L89.1936 77.1827Z" fill="#003366"/>
</g>
<defs>
<clipPath id="clip0_2100_19644">
<rect width="290.476" height="300" fill="white" transform="translate(0.261963 0.53595)"/>
</clipPath>
</defs>
</svg>
